<svg xmlns="http://www.w3.org/2000/svg" width="640" height="640" viewBox="0 0 640 640" fill="none">
  <rect width="640" height="640" fill="white"/>
  <rect x="42" y="42" width="556" height="556" stroke="#101828" stroke-width="10"/>

  <rect x="78" y="78" width="150" height="150" fill="#111827"/>
  <rect x="102" y="102" width="102" height="102" fill="white"/>
  <rect x="120" y="120" width="66" height="66" fill="#111827"/>

  <rect x="412" y="78" width="150" height="150" fill="#111827"/>
  <rect x="436" y="102" width="102" height="102" fill="white"/>
  <rect x="454" y="120" width="66" height="66" fill="#111827"/>

  <rect x="78" y="412" width="150" height="150" fill="#111827"/>
  <rect x="102" y="436" width="102" height="102" fill="white"/>
  <rect x="120" y="454" width="66" height="66" fill="#111827"/>

  <rect x="282" y="282" width="24" height="24" fill="#111827"/>
  <rect x="318" y="282" width="24" height="24" fill="#111827"/>
  <rect x="354" y="282" width="24" height="24" fill="#111827"/>
  <rect x="390" y="282" width="24" height="24" fill="#111827"/>

  <rect x="282" y="318" width="24" height="24" fill="#111827"/>
  <rect x="354" y="318" width="24" height="24" fill="#111827"/>
  <rect x="426" y="318" width="24" height="24" fill="#111827"/>

  <rect x="246" y="354" width="24" height="24" fill="#111827"/>
  <rect x="282" y="354" width="24" height="24" fill="#111827"/>
  <rect x="354" y="354" width="24" height="24" fill="#111827"/>
  <rect x="390" y="354" width="24" height="24" fill="#111827"/>
  <rect x="426" y="354" width="24" height="24" fill="#111827"/>

  <rect x="246" y="390" width="24" height="24" fill="#111827"/>
  <rect x="318" y="390" width="24" height="24" fill="#111827"/>
  <rect x="354" y="390" width="24" height="24" fill="#111827"/>
  <rect x="426" y="390" width="24" height="24" fill="#111827"/>

  <text x="320" y="602" text-anchor="middle" fill="#111827" font-size="22" font-family="Arial, sans-serif">PAYMENT QR PLACEHOLDER</text>
</svg>
